{"accessors" : [{"bufferView" : 0, "byteOffset" : 0, "componentType" : 5123, "count" : 27876, "type" : "SCALAR", "max" : [5465], "min" : [0]}, {"bufferView" : 1, "byteOffset" : 0, "componentType" : 5126, "count" : 5466, "type" : "VEC3", "max" : [0.12342599779367447, 0.03622899949550629, 0.006938000209629536], "min" : [-0.12342599779367447, -0.0442969985306263, -0.01568399928510189], "name" : "POSITION"}, {"bufferView" : 1, "byteOffset" : 12, "componentType" : 5126, "count" : 5466, "type" : "VEC2", "max" : [0.9091150164604187, 0.9987760186195374], "min" : [0.0012250000145286322, 0.0012249946594238281], "name" : "TEXCOORD_0"}, {"bufferView" : 1, "byteOffset" : 20, "componentType" : 5126, "count" : 5466, "type" : "VEC3", "max" : [0.9997323155403137, 1.0000044107437134, 1.0000044107437134], "min" : [-0.9995328783988953, -1.0000044107437134, -1.0000044107437134], "name" : "NORMAL"}, {"bufferView" : 0, "byteOffset" : 55752, "componentType" : 5123, "count" : 3648, "type" : "SCALAR", "max" : [778], "min" : [0]}, {"bufferView" : 2, "byteOffset" : 0, "componentType" : 5126, "count" : 779, "type" : "VEC3", "max" : [0.12933500111103058, 0.0321119986474514, -0.014183999970555305], "min" : [0.11270999908447266, -0.025589000433683395, -0.2495339959859848], "name" : "POSITION"}, {"bufferView" : 2, "byteOffset" : 12, "componentType" : 5126, "count" : 779, "type" : "VEC2", "max" : [0.8375909924507141, 0.9987620115280151], "min" : [0.2887920141220093, 0.0012649893760681152], "name" : "TEXCOORD_0"}, {"bufferView" : 2, "byteOffset" : 20, "componentType" : 5126, "count" : 779, "type" : "VEC3", "max" : [0.9999605417251587, 0.998884916305542, 0.9987317323684692], "min" : [-0.9999752640724182, -0.9998629689216614, -0.9895687699317932], "name" : "NORMAL"}, {"bufferView" : 0, "byteOffset" : 63048, "componentType" : 5123, "count" : 17064, "type" : "SCALAR", "max" : [3359], "min" : [0]}, {"bufferView" : 3, "byteOffset" : 0, "componentType" : 5126, "count" : 3360, "type" : "VEC3", "max" : [0.10644999891519547, 0.029241999611258507, 0.0023109999019652605], "min" : [-0.10644999891519547, -0.04110899940133095, -0.004881999921053648], "name" : "POSITION"}, {"bufferView" : 3, "byteOffset" : 12, "componentType" : 5126, "count" : 3360, "type" : "VEC2", "max" : [0.8011090159416199, 0.9925659894943237], "min" : [0.0059899999760091305, 0.007408022880554199], "name" : "TEXCOORD_0"}, {"bufferView" : 3, "byteOffset" : 20, "componentType" : 5126, "count" : 3360, "type" : "VEC3", "max" : [0.21338964998722076, 0.1521950364112854, 1.0000044107437134], "min" : [-0.21338964998722076, -0.15200260281562805, -1.0000044107437134], "name" : "NORMAL"}, {"bufferView" : 0, "byteOffset" : 97176, "componentType" : 5123, "count" : 2880, "type" : "SCALAR", "max" : [618], "min" : [0]}, {"bufferView" : 4, "byteOffset" : 0, "componentType" : 5126, "count" : 619, "type" : "VEC3", "max" : [-0.11317799985408783, 0.0321119986474514, -0.014183999970555305], "min" : [-0.12980300188064575, -0.025589000433683395, -0.2495339959859848], "name" : "POSITION"}, {"bufferView" : 4, "byteOffset" : 12, "componentType" : 5126, "count" : 619, "type" : "VEC2", "max" : [0.8375909924507141, 0.9987620115280151], "min" : [0.0012379999971017241, 0.0012379884719848633], "name" : "TEXCOORD_0"}, {"bufferView" : 4, "byteOffset" : 20, "componentType" : 5126, "count" : 619, "type" : "VEC3", "max" : [0.9999749064445496, 0.9988620281219482, 0.9987317323684692], "min" : [-0.9999613761901855, -0.9998546242713928, -0.9895672798156738], "name" : "NORMAL"}], "asset" : {"generator" : "Aspose.3D 24.2.0", "version" : "2.0"}, "buffers" : [{"uri" : "buffer.bin", "byteLength" : 430124}], "bufferViews" : [{"buffer" : 0, "byteOffset" : 0, "byteLength" : 102936, "target" : 34963}, {"buffer" : 0, "byteOffset" : 102940, "byteLength" : 174912, "byteStride" : 32, "target" : 34962}, {"buffer" : 0, "byteOffset" : 277856, "byteLength" : 24928, "byteStride" : 32, "target" : 34962}, {"buffer" : 0, "byteOffset" : 302788, "byteLength" : 107520, "byteStride" : 32, "target" : 34962}, {"buffer" : 0, "byteOffset" : 410312, "byteLength" : 19808, "byteStride" : 32, "target" : 34962}], "meshes" : [{"primitives" : [{"attributes" : {"POSITION" : 1, "TEXCOORD_0" : 2, "NORMAL" : 3}, "indices" : 0, "mode" : 4}], "name" : ""}, {"primitives" : [{"attributes" : {"POSITION" : 5, "TEXCOORD_0" : 6, "NORMAL" : 7}, "indices" : 4, "mode" : 4}], "name" : ""}, {"primitives" : [{"attributes" : {"POSITION" : 9, "TEXCOORD_0" : 10, "NORMAL" : 11}, "indices" : 8, "mode" : 4}], "name" : ""}, {"primitives" : [{"attributes" : {"POSITION" : 13, "TEXCOORD_0" : 14, "NORMAL" : 15}, "indices" : 12, "mode" : 4}], "name" : ""}], "nodes" : [{"mesh" : 0, "name" : "submesh"}, {"mesh" : 1, "name" : "submesh_1"}, {"mesh" : 2, "name" : "submesh_2"}, {"mesh" : 3, "name" : "submesh_3"}], "scene" : 0, "scenes" : [{"nodes" : [0, 1, 2, 3]}]}